<?xml version="1.0" encoding="utf-8"?>
<!-- Generator: Adobe Illustrator 23.0.1, SVG Export Plug-In . SVG Version: 6.00 Build 0)  -->
<svg version="1.1" id="Emotionally_x5F_Logo" xmlns="http://www.w3.org/2000/svg" xmlns:xlink="http://www.w3.org/1999/xlink"
	 x="0px" y="0px" viewBox="0 0 1000 1000" style="enable-background:new 0 0 1000 1000;" xml:space="preserve">
<style type="text/css">
	.st0{fill:#FF9800;}
	.st1{fill:#FFC500;}
	.st2{fill:url(#SVGID_1_);}
	.st3{fill:#F52C5B;}
	.st4{fill:none;stroke:#212731;stroke-miterlimit:10;}
	.st5{fill:#212731;}
	.st6{fill:url(#SVGID_2_);}
	.st7{fill:#58B3DE;}
	.st8{fill:#382A12;}
	.st9{fill:#F9BF44;}
	.st10{fill:#66337B;}
	.st11{fill:#F6262F;}
	.st12{fill:#A8111C;}
	.st13{fill:#2D090E;}
</style>
<g id="Base">
	<path class="st0" d="M782.4,429.5l-72.7-68.7c-17.8,12.7-39.1,19.6-61.1,19.6c-0.8,0-1.6,0-2.4,0l-9.6,43.2
		c18.9,13.6,26.9,38.4,18.8,60.8c-7.5,20.8-27.5,34.8-49.6,34.8c-3.9,0-7.8-0.4-11.6-1.3c-25.9-5.8-43.4-30.1-40.9-56.5
		c2.3-23.7,20.2-42.6,43-46.8l9.6-43.2c-17.4-7.7-32.5-20.1-43.5-35.6l-32.1,14.2c2.2,15.7-0.6,31.7-8.2,45.8
		c-8.9,16.7-23.7,29.2-41.5,35.4c-8,2.8-16.3,4.2-24.6,4.2c-29.7,0-56.7-17.5-68.7-44.7c-7.6-17.3-8.5-36.6-2.4-54.5
		c6.1-17.9,18.6-32.7,35.2-41.7c11-6,23.4-9.1,35.9-9.1c22.5,0,43.5,10,57.7,27l31.9-14.2c-9.8-43,8.4-87.7,45.4-111.7l-3.2-7.8
		c-1,0.1-1.9,0.1-2.9,0.1l-0.1,0c-15.2,0-29.8-5.4-41.3-15.3c-11.4-9.9-19-23.5-21.2-38.5c-1.5-10.1,2.7-29.8,2.8-29.8
		c-75.1-2-125.5,24.5-137.2,31.6c-56.7,34.5-100.4,77.4-128.1,140.9c-8.2,18.8-12.5,39.5-18.1,61.1c-5.8,22.3-4,52.6-4,79.8v32.9
		c-3.9,14-9.5,29.2-14.1,42.9c-5.4,16.3-8.6,31.9-14.1,48.3c-4.6,13.8-14.3,33.4-12.7,49.6c2,2.1,3,5.7,5.4,7.4
		c1.7,1.2,3.9,1.4,5.4,2.7c5.9-0.1,26-1.6,29.5,0.7c4,6.1,2.1,23,4,31.5c4.5,19.4,3.6,41.6,8,61.1c1.7,7.4,0.5,14.2,2.7,20.8
		c6.1,18.6,19.9,31.9,38.9,37.6c11.7,3.5,29.7,1.3,43.6,1.3h87.2v158.3v0h240.1c8,0,19.5,1.5,26.2-0.7c0-90.5-5-187.3,17.4-255.6
		c7.4-22.4,15.9-44.2,24.8-64.4c3.6-8.1,6.2-16.1,10.7-23.5c13.4-22,28.2-43.5,38.9-67.8c1.3-2.9,2.5-5.8,3.5-8.8
		c-4.1-8.3-6.3-17.7-6.3-27.5C776.7,446.3,778.7,437.5,782.4,429.5z"/>
	<path class="st0" d="M626.1,163.1l3.2,7.9c6.4-1.2,13-1.8,19.6-1.8c24.7,0,48.9,8.9,67.7,24.8l11.6-9.3c-0.1-0.1-0.2-0.2-0.3-0.4
		c-2.5-2.2-4.9-4.5-7.4-6.7c-7.7-7.7-15.2-14.9-24.1-21.5c-8.8-6.5-17.4-14.2-26.8-20.1c-7.1-4.5-14.6-8.5-22.3-12.3
		c-0.4,3-1,6-1.8,8.9C642,144.5,635.3,155.1,626.1,163.1z"/>
	<path class="st0" d="M738,330.7l64.7,61.2c0.2-5.1,0.3-10.3,0.3-15.7c0-9,0.3-18.1-1.3-25.5c-0.4-5.4-0.9-10.7-1.3-16.1
		c-4.5-18.3-6.7-36.7-13.4-53c-9.5-23.1-19.7-45.3-33-64.7l-11.6,9.3C759.5,259.2,757.8,299.3,738,330.7z"/>
</g>
<path id="Rete_x5F_Neurale" class="st1" d="M839.5,402.2c-10.9,0-21.6,3.4-30.5,9.8l-84.4-79.9c24-31.6,25.8-74.9,4.4-108.3l36.2-29
	c24.7,21.9,62,21.2,85.9-1.6s26.3-60,5.7-85.7c-20.7-25.7-57.6-31.3-84.9-12.8s-36,54.8-19.9,83.6l-36.1,28.9
	c-24.2-24.4-59.8-33.7-92.9-24.4l-9.2-22.9c21.9-14.5,29.9-42.9,18.8-66.7s-38.1-35.8-63.3-28.3c-25.2,7.6-41,32.5-37.1,58.5
	c3.9,26,26.2,45.3,52.5,45.2c3.2,0,6.3-0.4,9.4-0.9l9.2,22.9c-40.6,21.7-59.9,69.3-46,113.1l-47,20.9
	c-18.6-28.3-55.8-37.7-85.5-21.5c-29.7,16.2-42.1,52.5-28.4,83.5c13.7,31,48.9,46.2,80.8,35.1s50.1-44.9,41.6-77.7L566,323
	c11.6,19.7,29.8,34.6,51.4,42.1l-13,58.5c-21.5,0.6-39.2,17.2-41.3,38.6c-2.1,21.4,12.1,41,33.1,45.8c21,4.7,42.2-6.9,49.6-27.1
	c7.3-20.2-1.5-42.8-20.7-52.6l13-58.5c3.4,0.4,6.8,0.6,10.3,0.6c22.6,0,44.5-8.1,61.7-22.7l84.4,79.9c-5.2,8.3-8,18-8.1,27.8
	c0,29.3,23.8,53.1,53.1,53.1c29.3,0,53.1-23.8,53.1-53.1C892.6,426,868.9,402.2,839.5,402.2z M552.8,115.5c0-16,11.9-29.6,27.8-31.7
	c15.9-2,30.9,8.1,34.9,23.6c4,15.5-4.1,31.6-19,37.6h-0.1c-3.7,1.5-7.7,2.3-11.7,2.3c-8.5,0-16.6-3.4-22.5-9.3
	C556.1,132,552.8,123.9,552.8,115.5z M457.2,402.2c-23.5,0-42.5-19-42.5-42.5c0-23.5,19-42.5,42.5-42.5c23.5,0,42.5,19,42.5,42.5
	C499.7,383.2,480.6,402.2,457.2,402.2z M605.9,487.2c-11.7,0-21.2-9.5-21.2-21.2s9.5-21.2,21.2-21.2c11.7,0,21.2,9.5,21.2,21.2
	S617.6,487.2,605.9,487.2z M807.7,104.8c23.5,0,42.5,19,42.5,42.5s-19,42.5-42.5,42.5c-23.5,0-42.5-19-42.5-42.5
	S784.2,104.8,807.7,104.8z M574,274.8c0-41.1,33.3-74.3,74.3-74.3c41.1,0,74.3,33.3,74.3,74.3s-33.3,74.3-74.3,74.3
	C607.3,349.1,574.1,315.8,574,274.8z M839.5,487.2c-17.6,0-31.9-14.3-31.9-31.9c0-17.6,14.3-31.9,31.9-31.9
	c17.6,0,31.9,14.3,31.9,31.9C871.4,472.9,857.1,487.2,839.5,487.2z"/>
<circle id="Interno_x5F_Rete" class="st0" cx="648.5" cy="274.5" r="62.5"/>
<g id="Emoji_x5F_1">
	
		<linearGradient id="SVGID_1_" gradientUnits="userSpaceOnUse" x1="489.0056" y1="699.1672" x2="422.9944" y2="584.8328" gradientTransform="matrix(1 0 0 -1 0 1002)">
		<stop  offset="0" style="stop-color:#FFE254"/>
		<stop  offset="1" style="stop-color:#FFB255"/>
	</linearGradient>
	<circle class="st2" cx="456" cy="360" r="66"/>
	<path class="st3" d="M489,381.8c8.1,8.1-10.2,20.6-33,20.6s-41.1-12.6-33-20.6c8.3-8.3,10.2,4.1,33,4.1S480.8,373.5,489,381.8z"/>
	<path class="st4" d="M415,353.2c3.9-16.6,24.5-16.4,28.9,0"/>
	<path class="st4" d="M468.6,353.2c3.9-16.6,24.5-16.4,28.9,0"/>
	<path class="st5" d="M489,381.8c-8.3-8.3-10.2,4.1-33,4.1s-24.8-12.4-33-4.1c-5,5,0.2,11.7,10.2,16.1c3.8-2.2,12.5-3.8,22.8-3.8
		s19,1.6,22.8,3.8C488.8,393.5,494,386.7,489,381.8z"/>
	<path class="st5" d="M489,381.8c-8.3-8.3-10.2,4.1-33,4.1s-24.8-12.4-33-4.1c-5,5,0.2,11.7,10.2,16.1c3.8-2.2,12.5-3.8,22.8-3.8
		s19,1.6,22.8,3.8C488.8,393.5,494,386.7,489,381.8z"/>
</g>
<g id="Emoji_x5F_2">
	<linearGradient id="SVGID_2_" gradientUnits="userSpaceOnUse" x1="612.2468" y1="161.5055" x2="556.2372" y2="64.4945">
		<stop  offset="0" style="stop-color:#FFE254"/>
		<stop  offset="1" style="stop-color:#FFB255"/>
	</linearGradient>
	<circle class="st6" cx="584.2" cy="113" r="56"/>
	<g id="Layer_1">
		<path class="st7" d="M574.7,106.5c0-0.1-0.1-0.2-0.1-0.3c-0.1-0.2-0.3-0.4-0.5-0.6c-0.1-0.1-0.2-0.1-0.3-0.2
			c-0.3-0.2-0.6-0.3-1-0.3c-0.2,0-0.4,0-0.5,0.1c0,0,0,0-0.1,0c-0.1,0-0.3,0.1-0.4,0.2c-0.2,0.1-0.4,0.3-0.6,0.5
			c-0.1,0.1-0.1,0.2-0.2,0.3c0,0.1-0.1,0.1-0.1,0.2c-2.4,4.8-8.3,6.6-13.1,4.2c-1.8-0.9-3.3-2.4-4.3-4.2c0-0.1,0-0.1-0.1-0.1
			c-0.1-0.2-0.2-0.3-0.3-0.5c-0.1-0.1-0.3-0.2-0.4-0.3c-0.1-0.1-0.3-0.2-0.5-0.2c0,0,0,0-0.1,0c-0.2-0.1-0.3-0.1-0.5-0.1
			c-0.3,0-0.7,0.1-1,0.3c-0.1,0.1-0.2,0.1-0.3,0.2c-0.2,0.1-0.3,0.3-0.4,0.4c-0.1,0.1-0.1,0.2-0.1,0.3c-0.1,0.1-0.1,0.2-0.1,0.3
			c-0.1,0.2-0.1,0.3-0.1,0.5v48.2c0,0.5,0.2,1,0.6,1.4c0.1,0.1,0.2,0.2,0.3,0.3c6.5,4.8,13.9,8.2,21.8,9.9c0.1,0,0.3,0,0.4,0
			c1.1,0,2-0.9,2-2v-57.9c0-0.2,0-0.3-0.1-0.4C574.8,106.6,574.8,106.6,574.7,106.5z"/>
		<path class="st7" d="M619.1,106.7c0-0.1-0.1-0.2-0.1-0.3c0-0.1-0.1-0.2-0.1-0.3c-0.1-0.2-0.2-0.3-0.4-0.4
			c-0.1-0.1-0.2-0.1-0.3-0.2c-0.3-0.2-0.6-0.3-1-0.3c-0.2,0-0.4,0-0.5,0.1c0,0,0,0-0.1,0c-0.2,0-0.3,0.1-0.5,0.2
			c-0.2,0.1-0.3,0.2-0.4,0.3c-0.1,0.1-0.2,0.2-0.3,0.4c0,0.1-0.1,0.1-0.1,0.2c-2.4,4.8-8.3,6.7-13.1,4.2c-1.9-0.9-3.4-2.4-4.3-4.2
			c0-0.1-0.1-0.1-0.1-0.2c-0.1-0.1-0.1-0.2-0.2-0.3c-0.1-0.2-0.3-0.4-0.6-0.5c-0.1-0.1-0.3-0.1-0.4-0.2c0,0,0,0-0.1,0
			c-0.2-0.1-0.3-0.1-0.5-0.1c-0.3,0-0.7,0.1-1,0.3c-0.1,0.1-0.2,0.1-0.3,0.2c-0.2,0.1-0.4,0.3-0.5,0.6c-0.1,0.1-0.1,0.3-0.2,0.4
			c0,0,0,0,0,0.1c-0.1,0.2-0.1,0.3-0.1,0.5V165c0,1.1,0.9,2,2,2c0.1,0,0.3,0,0.4,0h0c7.9-1.8,15.3-5.2,21.8-10.1
			c0.1-0.1,0.3-0.2,0.4-0.3c0.4-0.4,0.6-0.9,0.6-1.4v-48C619.2,107,619.2,106.8,619.1,106.7z"/>
		<path class="st8" d="M562.3,115.8c-5.3,0-10.1-3-12.4-7.7c-0.5-1-0.1-2.2,0.9-2.7c1-0.5,2.2-0.1,2.7,0.9c0,0,0,0,0,0
			c2.4,4.8,8.2,6.8,13.1,4.4c1.9-1,3.5-2.5,4.4-4.4c0.5-1,1.7-1.4,2.7-0.9c1,0.5,1.4,1.7,0.9,2.7
			C572.3,112.8,567.5,115.8,562.3,115.8z"/>
		<path class="st8" d="M558.9,100.5c-3.3,0-6.4-1.2-8.9-3.3c-0.8-0.7-0.9-2-0.2-2.8s2-0.9,2.8-0.2c4.1,3.5,10.2,3,13.7-1.1
			c1.4-1.6,2.2-3.7,2.3-5.8c0.1-1.1,1-2,2.1-1.9c1.1,0.1,2,1,1.9,2.1c-0.2,5.3-3.5,9.9-8.3,12C562.6,100.1,560.8,100.5,558.9,100.5z
			"/>
		<path class="st8" d="M609.6,100.5c-1.9,0-3.8-0.4-5.5-1.1c-4.8-2.1-8.1-6.7-8.3-12c-0.1-1.1,0.8-2.1,1.9-2.1s2.1,0.8,2.1,1.9
			c0.3,5.4,4.8,9.5,10.2,9.2c2.2-0.1,4.2-0.9,5.8-2.3c0.8-0.7,2.1-0.6,2.8,0.2s0.6,2.1-0.2,2.8C616,99.3,612.9,100.5,609.6,100.5z"
			/>
		<path class="st8" d="M606.6,115.8c-5.3,0-10.1-3-12.4-7.7c-0.5-1-0.1-2.2,0.9-2.7c1-0.5,2.2-0.1,2.7,0.9c0,0,0,0,0,0
			c2.4,4.8,8.2,6.8,13.1,4.4c1.9-1,3.5-2.5,4.4-4.4c0.5-1,1.7-1.4,2.7-0.9c1,0.5,1.4,1.7,0.9,2.7c0,0,0,0,0,0
			C616.7,112.8,611.9,115.8,606.6,115.8z"/>
		<path class="st8" d="M596.1,126.1c-0.4,0-0.7-0.1-1-0.3c-6.6-3.7-14.6-3.8-21.2-0.2c-1,0.5-2.2,0.2-2.7-0.8
			c-0.5-1-0.2-2.2,0.8-2.7l0,0c7.9-4.3,17.5-4.2,25.3,0.3c1,0.6,1.3,1.8,0.7,2.8C597.5,125.7,596.8,126.1,596.1,126.1L596.1,126.1z"
			/>
	</g>
</g>
<g id="Emoji_x5F_3">
	<circle class="st9" cx="806.4" cy="147.2" r="67.2"/>
	<g id="Layer_1_1_">
		<path class="st10" d="M870.6,127.4c-1.3,1.1-2.7,2.2-4.1,3.2c-14.3,10.1-35.9,16.6-60.1,16.6s-45.8-6.5-60.1-16.6
			c-1.5-1-2.8-2.1-4.1-3.2c10.9-35.5,48.5-55.3,84-44.4C847.4,89.5,864.1,106.2,870.6,127.4z"/>
		<ellipse class="st8" cx="779.5" cy="147.2" rx="6" ry="6.9"/>
		<ellipse class="st8" cx="832.8" cy="147.2" rx="6" ry="6.9"/>
		<path class="st8" d="M840,174.9c-4.6,0-6.9-3.3-8.7-5.9c-1.7-2.4-2.7-3.8-4.7-3.8c-2,0-3,1.4-4.7,3.8c-1.8,2.6-4.1,5.9-8.7,5.9
			s-6.9-3.3-8.7-5.9c-1.7-2.4-2.7-3.8-4.7-3.8c-2,0-3.1,1.4-4.7,3.8c-1.8,2.6-4.1,5.9-8.7,5.9c-4.6,0-6.9-3.3-8.7-5.9
			c-1.7-2.4-2.7-3.8-4.7-3.8c-1.3,0-2.4-1.1-2.4-2.4s1.1-2.4,2.4-2.4c4.6,0,6.9,3.3,8.7,5.9c1.7,2.4,2.7,3.8,4.7,3.8
			c2,0,3.1-1.4,4.7-3.8c1.8-2.6,4.1-5.9,8.7-5.9c4.6,0,6.9,3.3,8.7,5.9c1.7,2.4,2.7,3.8,4.7,3.8c2,0,3-1.4,4.7-3.8
			c1.8-2.6,4.1-5.9,8.7-5.9s6.9,3.3,8.7,5.9c1.7,2.4,2.7,3.8,4.7,3.8c1.3,0,2.4,1.1,2.4,2.4S841.4,174.9,840,174.9L840,174.9z"/>
		<path class="st8" d="M777.1,133.4c-3.9,0-7.7-1.4-10.7-4c-1-0.9-1.1-2.4-0.3-3.4c0.9-1,2.4-1.1,3.4-0.3c4.9,4.2,12.3,3.6,16.5-1.3
			c1.7-2,2.7-4.4,2.8-7c0.1-1.3,1.2-2.4,2.5-2.3s2.4,1.2,2.3,2.5c-0.3,6.3-4.2,11.9-10,14.4C781.6,133,779.3,133.4,777.1,133.4z"/>
		<path class="st8" d="M837.9,133.4c-8.8,0-16.1-6.9-16.5-15.7c-0.1-1.3,1-2.5,2.3-2.5c1.3-0.1,2.5,1,2.5,2.3
			c0.3,6.5,5.8,11.4,12.3,11.1c2.6-0.1,5-1.1,7-2.8c1-0.9,2.5-0.7,3.4,0.3c0.9,1,0.7,2.5-0.3,3.4C845.6,132,841.8,133.4,837.9,133.4
			z"/>
	</g>
</g>
<g id="Emoji_x5F_4">
	<circle class="st11" cx="605.8" cy="466.3" r="42.8"/>
	<g id="Layer_1_2_">
		<path class="st12" d="M600.7,462.9l-23.8-7.9c-0.4-0.1-0.8-0.1-1.2,0.1c-0.4,0.2-0.6,0.5-0.8,0.9c-2.4,7.4,1.5,15.3,8.9,17.8
			c1.4,0.5,2.9,0.7,4.4,0.7c6.1,0,11.4-3.9,13.4-9.6C601.9,464,601.5,463.1,600.7,462.9z"/>
		<path class="st12" d="M636.2,455.9c-0.3-0.8-1.1-1.2-1.9-1c0,0,0,0,0,0l-23.7,8c-0.4,0.1-0.7,0.4-0.9,0.8
			c-0.2,0.4-0.2,0.8-0.1,1.2c1.9,5.7,7.3,9.6,13.3,9.6c7.8,0,14.1-6.3,14-14.1C636.9,458.8,636.7,457.3,636.2,455.9z"/>
		<path class="st13" d="M621.9,484.2c-0.6,0-1.1-0.3-1.4-0.9c-4-8.2-13.9-11.5-22-7.5c-3.3,1.6-5.9,4.2-7.5,7.5
			c-0.4,0.8-1.3,1.1-2.1,0.7c-0.8-0.4-1.1-1.3-0.7-2.1c4.8-9.7,16.5-13.7,26.1-8.9c3.9,1.9,7,5,8.9,8.9c0.4,0.8,0.1,1.7-0.7,2.1
			C622.4,484.1,622.2,484.2,621.9,484.2L621.9,484.2z"/>
	</g>
</g>
<g id="Emoji_x5F_5">
	<circle class="st9" cx="839.8" cy="455.3" r="53.5"/>
	<g id="Layer_1_3_">
		<path class="st8" d="M853.1,468.1c-0.2,0-0.4,0-0.6-0.1c-7.5-2.5-15.5-2.6-23-0.3c-1,0.3-2.1-0.2-2.4-1.2c-0.3-1,0.2-2.1,1.2-2.4
			c0,0,0,0,0.1,0c8.3-2.5,17.1-2.4,25.4,0.3c1,0.3,1.6,1.4,1.2,2.4C854.7,467.6,854,468.1,853.1,468.1L853.1,468.1z"/>
		<path class="st8" d="M850.8,445.8c-0.3,0-0.6-0.1-0.8-0.2c-0.9-0.5-1.3-1.6-0.8-2.6c0,0,0,0,0,0c2.3-4.5,6.9-7.3,11.9-7.2
			c1.3,0,2.5,0.2,3.7,0.6c3.4,1,6.2,3.4,7.8,6.5c0.5,0.9,0.2,2.1-0.8,2.6c-0.9,0.5-2.1,0.2-2.6-0.8c0,0,0-0.1,0-0.1
			c-1.1-2.2-3.1-3.9-5.5-4.6c-0.9-0.3-1.7-0.4-2.6-0.4c-3.6-0.1-6.8,1.9-8.4,5.1C852.2,445.4,851.6,445.8,850.8,445.8z"/>
		<path class="st8" d="M808.6,436.7c-0.3,0-0.6-0.1-0.8-0.2c-0.9-0.5-1.3-1.6-0.8-2.6c0,0,0,0,0,0c3.3-6.5,11.3-9,17.7-5.7
			c2.4,1.2,4.4,3.2,5.7,5.6c0.5,0.9,0.1,2.1-0.8,2.6c-0.9,0.5-2.1,0.1-2.6-0.8c-1.6-3-4.7-4.9-8.1-5c-3.5-0.1-6.8,1.9-8.4,5.1
			C810,436.3,809.3,436.7,808.6,436.7z"/>
		
			<ellipse transform="matrix(1.357079e-02 -0.9999 0.9999 1.357079e-02 358.3499 1264.5404)" class="st8" cx="820.1" cy="450.6" rx="5.5" ry="4.8"/>
		
			<ellipse transform="matrix(1.357079e-02 -0.9999 0.9999 1.357079e-02 399.5721 1307.476)" class="st8" cx="862.5" cy="451.2" rx="5.5" ry="4.8"/>
	</g>
</g>
<g>
</g>
<g>
</g>
<g>
</g>
<g>
</g>
<g>
</g>
<g>
</g>
<g>
</g>
<g>
</g>
<g>
</g>
<g>
</g>
<g>
</g>
<g>
</g>
<g>
</g>
<g>
</g>
<g>
</g>
</svg>
