<?xml version="1.0" encoding="UTF-8" standalone="no"?>
<!-- Created with Inkscape (http://www.inkscape.org/) -->

<svg
   xmlns:dc="http://purl.org/dc/elements/1.1/"
   xmlns:cc="http://creativecommons.org/ns#"
   xmlns:rdf="http://www.w3.org/1999/02/22-rdf-syntax-ns#"
   xmlns:svg="http://www.w3.org/2000/svg"
   xmlns="http://www.w3.org/2000/svg"
   xmlns:sodipodi="http://sodipodi.sourceforge.net/DTD/sodipodi-0.dtd"
   xmlns:inkscape="http://www.inkscape.org/namespaces/inkscape"
   version="1.1"
   id="svg10"
   width="1280"
   height="640"
   viewBox="0 0 1280 640"
   sodipodi:docname="emotionally-open-graph.svg"
   inkscape:version="0.92.5 (2060ec1f9f, 2020-04-08)"
   inkscape:export-filename="/home/andrea/Documents/emotionally-open-graph.png"
   inkscape:export-xdpi="96"
   inkscape:export-ydpi="96">
  <metadata
     id="metadata16">
    <rdf:RDF>
      <cc:Work
         rdf:about="">
        <dc:format>image/svg+xml</dc:format>
        <dc:type
           rdf:resource="http://purl.org/dc/dcmitype/StillImage" />
        <dc:title />
      </cc:Work>
    </rdf:RDF>
  </metadata>
  <defs
     id="defs14">
    <filter
       style="color-interpolation-filters:sRGB;"
       inkscape:label="Drop Shadow"
       id="filter5080">
      <feFlood
         flood-opacity="0.498039"
         flood-color="rgb(0,0,0)"
         result="flood"
         id="feFlood5070" />
      <feComposite
         in="flood"
         in2="SourceGraphic"
         operator="in"
         result="composite1"
         id="feComposite5072" />
      <feGaussianBlur
         in="composite1"
         stdDeviation="35"
         result="blur"
         id="feGaussianBlur5074" />
      <feOffset
         dx="0"
         dy="0"
         result="offset"
         id="feOffset5076" />
      <feComposite
         in="SourceGraphic"
         in2="offset"
         operator="over"
         result="composite2"
         id="feComposite5078" />
    </filter>
  </defs>
  <sodipodi:namedview
     pagecolor="#ffffff"
     bordercolor="#666666"
     borderopacity="1"
     objecttolerance="10"
     gridtolerance="10"
     guidetolerance="10"
     inkscape:pageopacity="0"
     inkscape:pageshadow="2"
     inkscape:window-width="1864"
     inkscape:window-height="1016"
     id="namedview12"
     showgrid="false"
     inkscape:zoom="0.73086115"
     inkscape:cx="735.81485"
     inkscape:cy="384.14867"
     inkscape:window-x="56"
     inkscape:window-y="27"
     inkscape:window-maximized="1"
     inkscape:current-layer="svg10" />
  <rect
     style="opacity:1;fill:#ff9800;fill-opacity:1;stroke:none;stroke-width:17.4394207;stroke-miterlimit:4;stroke-dasharray:none"
     id="rect522"
     width="1280"
     height="640"
     x="0"
     y="0" />
  <style
     id="style238"
     type="text/css">
	.st0{fill:#FF9800;}
	.st1{fill:#FFC500;}
	.st2{fill:url(#SVGID_1_);}
	.st3{fill:#F52C5B;}
	.st4{fill:none;stroke:#212731;stroke-miterlimit:10;}
	.st5{fill:#212731;}
	.st6{fill:url(#SVGID_2_);}
	.st7{fill:#58B3DE;}
	.st8{fill:#382A12;}
	.st9{fill:#F9BF44;}
	.st10{fill:#66337B;}
	.st11{fill:#F6262F;}
	.st12{fill:#A8111C;}
	.st13{fill:#2D090E;}
</style>
  <g
     id="g5178"
     transform="translate(-8.5449221e-7,12.12304)">
    <g
       style="filter:url(#filter5080)"
       transform="matrix(0.28619108,0,0,0.28619108,484.03677,105.74052)"
       id="g435">
      <g
         id="Base">
        <path
           style="fill:#ff9800"
           inkscape:connector-curvature="0"
           class="st0"
           d="m 782.4,429.5 -72.7,-68.7 c -17.8,12.7 -39.1,19.6 -61.1,19.6 -0.8,0 -1.6,0 -2.4,0 l -9.6,43.2 c 18.9,13.6 26.9,38.4 18.8,60.8 -7.5,20.8 -27.5,34.8 -49.6,34.8 -3.9,0 -7.8,-0.4 -11.6,-1.3 -25.9,-5.8 -43.4,-30.1 -40.9,-56.5 2.3,-23.7 20.2,-42.6 43,-46.8 l 9.6,-43.2 c -17.4,-7.7 -32.5,-20.1 -43.5,-35.6 L 530.3,350 c 2.2,15.7 -0.6,31.7 -8.2,45.8 -8.9,16.7 -23.7,29.2 -41.5,35.4 -8,2.8 -16.3,4.2 -24.6,4.2 -29.7,0 -56.7,-17.5 -68.7,-44.7 -7.6,-17.3 -8.5,-36.6 -2.4,-54.5 6.1,-17.9 18.6,-32.7 35.2,-41.7 11,-6 23.4,-9.1 35.9,-9.1 22.5,0 43.5,10 57.7,27 l 31.9,-14.2 c -9.8,-43 8.4,-87.7 45.4,-111.7 l -3.2,-7.8 c -1,0.1 -1.9,0.1 -2.9,0.1 h -0.1 c -15.2,0 -29.8,-5.4 -41.3,-15.3 -11.4,-9.9 -19,-23.5 -21.2,-38.5 -1.5,-10.1 2.7,-29.8 2.8,-29.8 -75.1,-2 -125.5,24.5 -137.2,31.6 -56.7,34.5 -100.4,77.4 -128.1,140.9 -8.2,18.8 -12.5,39.5 -18.1,61.1 -5.8,22.3 -4,52.6 -4,79.8 v 32.9 c -3.9,14 -9.5,29.2 -14.1,42.9 -5.4,16.3 -8.6,31.9 -14.1,48.3 -4.6,13.8 -14.3,33.4 -12.7,49.6 2,2.1 3,5.7 5.4,7.4 1.7,1.2 3.9,1.4 5.4,2.7 5.9,-0.1 26,-1.6 29.5,0.7 4,6.1 2.1,23 4,31.5 4.5,19.4 3.6,41.6 8,61.1 1.7,7.4 0.5,14.2 2.7,20.8 6.1,18.6 19.9,31.9 38.9,37.6 11.7,3.5 29.7,1.3 43.6,1.3 h 87.2 v 158.3 0 h 240.1 c 8,0 19.5,1.5 26.2,-0.7 0,-90.5 -5,-187.3 17.4,-255.6 7.4,-22.4 15.9,-44.2 24.8,-64.4 3.6,-8.1 6.2,-16.1 10.7,-23.5 13.4,-22 28.2,-43.5 38.9,-67.8 1.3,-2.9 2.5,-5.8 3.5,-8.8 -4.1,-8.3 -6.3,-17.7 -6.3,-27.5 -0.1,-9.1 1.9,-17.9 5.6,-25.9 z"
           id="path240" />
        <path
           style="fill:#ff9800"
           inkscape:connector-curvature="0"
           class="st0"
           d="m 626.1,163.1 3.2,7.9 c 6.4,-1.2 13,-1.8 19.6,-1.8 24.7,0 48.9,8.9 67.7,24.8 l 11.6,-9.3 c -0.1,-0.1 -0.2,-0.2 -0.3,-0.4 -2.5,-2.2 -4.9,-4.5 -7.4,-6.7 -7.7,-7.7 -15.2,-14.9 -24.1,-21.5 -8.8,-6.5 -17.4,-14.2 -26.8,-20.1 -7.1,-4.5 -14.6,-8.5 -22.3,-12.3 -0.4,3 -1,6 -1.8,8.9 -3.5,11.9 -10.2,22.5 -19.4,30.5 z"
           id="path242" />
        <path
           style="fill:#ff9800"
           inkscape:connector-curvature="0"
           class="st0"
           d="m 738,330.7 64.7,61.2 c 0.2,-5.1 0.3,-10.3 0.3,-15.7 0,-9 0.3,-18.1 -1.3,-25.5 -0.4,-5.4 -0.9,-10.7 -1.3,-16.1 -4.5,-18.3 -6.7,-36.7 -13.4,-53 -9.5,-23.1 -19.7,-45.3 -33,-64.7 l -11.6,9.3 c 17.1,33 15.4,73.1 -4.4,104.5 z"
           id="path244" />
      </g>
      <path
         style="fill:#ffc500"
         inkscape:connector-curvature="0"
         id="Rete_x5F_Neurale"
         class="st1"
         d="m 839.5,402.2 c -10.9,0 -21.6,3.4 -30.5,9.8 l -84.4,-79.9 c 24,-31.6 25.8,-74.9 4.4,-108.3 l 36.2,-29 c 24.7,21.9 62,21.2 85.9,-1.6 23.9,-22.8 26.3,-60 5.7,-85.7 -20.7,-25.7 -57.6,-31.3 -84.9,-12.8 -27.3,18.5 -36,54.8 -19.9,83.6 l -36.1,28.9 C 691.7,182.8 656.1,173.5 623,182.8 l -9.2,-22.9 C 635.7,145.4 643.7,117 632.6,93.2 621.5,69.4 594.5,57.4 569.3,64.9 c -25.2,7.6 -41,32.5 -37.1,58.5 3.9,26 26.2,45.3 52.5,45.2 3.2,0 6.3,-0.4 9.4,-0.9 l 9.2,22.9 c -40.6,21.7 -59.9,69.3 -46,113.1 l -47,20.9 c -18.6,-28.3 -55.8,-37.7 -85.5,-21.5 -29.7,16.2 -42.1,52.5 -28.4,83.5 13.7,31 48.9,46.2 80.8,35.1 31.9,-11.1 50.1,-44.9 41.6,-77.7 L 566,323 c 11.6,19.7 29.8,34.6 51.4,42.1 l -13,58.5 c -21.5,0.6 -39.2,17.2 -41.3,38.6 -2.1,21.4 12.1,41 33.1,45.8 21,4.7 42.2,-6.9 49.6,-27.1 7.3,-20.2 -1.5,-42.8 -20.7,-52.6 l 13,-58.5 c 3.4,0.4 6.8,0.6 10.3,0.6 22.6,0 44.5,-8.1 61.7,-22.7 l 84.4,79.9 c -5.2,8.3 -8,18 -8.1,27.8 0,29.3 23.8,53.1 53.1,53.1 29.3,0 53.1,-23.8 53.1,-53.1 0,-29.4 -23.7,-53.2 -53.1,-53.2 z M 552.8,115.5 c 0,-16 11.9,-29.6 27.8,-31.7 15.9,-2 30.9,8.1 34.9,23.6 4,15.5 -4.1,31.6 -19,37.6 h -0.1 c -3.7,1.5 -7.7,2.3 -11.7,2.3 -8.5,0 -16.6,-3.4 -22.5,-9.3 -6.1,-6 -9.4,-14.1 -9.4,-22.5 z m -95.6,286.7 c -23.5,0 -42.5,-19 -42.5,-42.5 0,-23.5 19,-42.5 42.5,-42.5 23.5,0 42.5,19 42.5,42.5 0,23.5 -19.1,42.5 -42.5,42.5 z m 148.7,85 c -11.7,0 -21.2,-9.5 -21.2,-21.2 0,-11.7 9.5,-21.2 21.2,-21.2 11.7,0 21.2,9.5 21.2,21.2 0,11.7 -9.5,21.2 -21.2,21.2 z M 807.7,104.8 c 23.5,0 42.5,19 42.5,42.5 0,23.5 -19,42.5 -42.5,42.5 -23.5,0 -42.5,-19 -42.5,-42.5 0,-23.5 19,-42.5 42.5,-42.5 z M 574,274.8 c 0,-41.1 33.3,-74.3 74.3,-74.3 41.1,0 74.3,33.3 74.3,74.3 0,41 -33.3,74.3 -74.3,74.3 -41,0 -74.2,-33.3 -74.3,-74.3 z m 265.5,212.4 c -17.6,0 -31.9,-14.3 -31.9,-31.9 0,-17.6 14.3,-31.9 31.9,-31.9 17.6,0 31.9,14.3 31.9,31.9 0,17.6 -14.3,31.9 -31.9,31.9 z" />
      <circle
         style="fill:#ff9800"
         id="Interno_x5F_Rete"
         class="st0"
         cx="648.5"
         cy="274.5"
         r="62.5" />
      <g
         id="Emoji_x5F_1">
        <linearGradient
           id="SVGID_1_"
           gradientUnits="userSpaceOnUse"
           x1="489.00562"
           y1="699.16718"
           x2="422.99438"
           y2="584.83282"
           gradientTransform="matrix(1,0,0,-1,0,1002)">
          <stop
             offset="0"
             style="stop-color:#FFE254"
             id="stop249" />
          <stop
             offset="1"
             style="stop-color:#FFB255"
             id="stop251" />
        </linearGradient>
        <circle
           style="fill:url(#SVGID_1_)"
           class="st2"
           cx="456"
           cy="360"
           r="66"
           id="circle254" />
        <path
           style="fill:#f52c5b"
           inkscape:connector-curvature="0"
           class="st3"
           d="m 489,381.8 c 8.1,8.1 -10.2,20.6 -33,20.6 -22.8,0 -41.1,-12.6 -33,-20.6 8.3,-8.3 10.2,4.1 33,4.1 22.8,0 24.8,-12.4 33,-4.1 z"
           id="path256" />
        <path
           style="fill:none;stroke:#212731;stroke-miterlimit:10"
           inkscape:connector-curvature="0"
           class="st4"
           d="m 415,353.2 c 3.9,-16.6 24.5,-16.4 28.9,0"
           id="path258" />
        <path
           style="fill:none;stroke:#212731;stroke-miterlimit:10"
           inkscape:connector-curvature="0"
           class="st4"
           d="m 468.6,353.2 c 3.9,-16.6 24.5,-16.4 28.9,0"
           id="path260" />
        <path
           style="fill:#212731"
           inkscape:connector-curvature="0"
           class="st5"
           d="m 489,381.8 c -8.3,-8.3 -10.2,4.1 -33,4.1 -22.8,0 -24.8,-12.4 -33,-4.1 -5,5 0.2,11.7 10.2,16.1 3.8,-2.2 12.5,-3.8 22.8,-3.8 10.3,0 19,1.6 22.8,3.8 10,-4.4 15.2,-11.2 10.2,-16.1 z"
           id="path262" />
        <path
           style="fill:#212731"
           inkscape:connector-curvature="0"
           class="st5"
           d="m 489,381.8 c -8.3,-8.3 -10.2,4.1 -33,4.1 -22.8,0 -24.8,-12.4 -33,-4.1 -5,5 0.2,11.7 10.2,16.1 3.8,-2.2 12.5,-3.8 22.8,-3.8 10.3,0 19,1.6 22.8,3.8 10,-4.4 15.2,-11.2 10.2,-16.1 z"
           id="path264" />
      </g>
      <g
         id="Emoji_x5F_2">
        <linearGradient
           id="SVGID_2_"
           gradientUnits="userSpaceOnUse"
           x1="612.24683"
           y1="161.50549"
           x2="556.23718"
           y2="64.494499">
          <stop
             offset="0"
             style="stop-color:#FFE254"
             id="stop267" />
          <stop
             offset="1"
             style="stop-color:#FFB255"
             id="stop269" />
        </linearGradient>
        <circle
           style="fill:url(#SVGID_2_)"
           class="st6"
           cx="584.20001"
           cy="113"
           r="56"
           id="circle272" />
        <g
           id="Layer_1">
          <path
             style="fill:#58b3de"
             inkscape:connector-curvature="0"
             class="st7"
             d="m 574.7,106.5 c 0,-0.1 -0.1,-0.2 -0.1,-0.3 -0.1,-0.2 -0.3,-0.4 -0.5,-0.6 -0.1,-0.1 -0.2,-0.1 -0.3,-0.2 -0.3,-0.2 -0.6,-0.3 -1,-0.3 -0.2,0 -0.4,0 -0.5,0.1 0,0 0,0 -0.1,0 -0.1,0 -0.3,0.1 -0.4,0.2 -0.2,0.1 -0.4,0.3 -0.6,0.5 -0.1,0.1 -0.1,0.2 -0.2,0.3 0,0.1 -0.1,0.1 -0.1,0.2 -2.4,4.8 -8.3,6.6 -13.1,4.2 -1.8,-0.9 -3.3,-2.4 -4.3,-4.2 0,-0.1 0,-0.1 -0.1,-0.1 -0.1,-0.2 -0.2,-0.3 -0.3,-0.5 -0.1,-0.1 -0.3,-0.2 -0.4,-0.3 -0.1,-0.1 -0.3,-0.2 -0.5,-0.2 0,0 0,0 -0.1,0 -0.2,-0.1 -0.3,-0.1 -0.5,-0.1 -0.3,0 -0.7,0.1 -1,0.3 -0.1,0.1 -0.2,0.1 -0.3,0.2 -0.2,0.1 -0.3,0.3 -0.4,0.4 -0.1,0.1 -0.1,0.2 -0.1,0.3 -0.1,0.1 -0.1,0.2 -0.1,0.3 -0.1,0.2 -0.1,0.3 -0.1,0.5 v 48.2 c 0,0.5 0.2,1 0.6,1.4 0.1,0.1 0.2,0.2 0.3,0.3 6.5,4.8 13.9,8.2 21.8,9.9 0.1,0 0.3,0 0.4,0 1.1,0 2,-0.9 2,-2 v -57.9 c 0,-0.2 0,-0.3 -0.1,-0.4 0.2,-0.1 0.2,-0.1 0.1,-0.2 z"
             id="path274" />
          <path
             style="fill:#58b3de"
             inkscape:connector-curvature="0"
             class="st7"
             d="m 619.1,106.7 c 0,-0.1 -0.1,-0.2 -0.1,-0.3 0,-0.1 -0.1,-0.2 -0.1,-0.3 -0.1,-0.2 -0.2,-0.3 -0.4,-0.4 -0.1,-0.1 -0.2,-0.1 -0.3,-0.2 -0.3,-0.2 -0.6,-0.3 -1,-0.3 -0.2,0 -0.4,0 -0.5,0.1 0,0 0,0 -0.1,0 -0.2,0 -0.3,0.1 -0.5,0.2 -0.2,0.1 -0.3,0.2 -0.4,0.3 -0.1,0.1 -0.2,0.2 -0.3,0.4 0,0.1 -0.1,0.1 -0.1,0.2 -2.4,4.8 -8.3,6.7 -13.1,4.2 -1.9,-0.9 -3.4,-2.4 -4.3,-4.2 0,-0.1 -0.1,-0.1 -0.1,-0.2 -0.1,-0.1 -0.1,-0.2 -0.2,-0.3 -0.1,-0.2 -0.3,-0.4 -0.6,-0.5 -0.1,-0.1 -0.3,-0.1 -0.4,-0.2 0,0 0,0 -0.1,0 -0.2,-0.1 -0.3,-0.1 -0.5,-0.1 -0.3,0 -0.7,0.1 -1,0.3 -0.1,0.1 -0.2,0.1 -0.3,0.2 -0.2,0.1 -0.4,0.3 -0.5,0.6 -0.1,0.1 -0.1,0.3 -0.2,0.4 0,0 0,0 0,0.1 -0.1,0.2 -0.1,0.3 -0.1,0.5 V 165 c 0,1.1 0.9,2 2,2 0.1,0 0.3,0 0.4,0 v 0 c 7.9,-1.8 15.3,-5.2 21.8,-10.1 0.1,-0.1 0.3,-0.2 0.4,-0.3 0.4,-0.4 0.6,-0.9 0.6,-1.4 v -48 c 0.1,-0.2 0.1,-0.4 0,-0.5 z"
             id="path276" />
          <path
             style="fill:#382a12"
             inkscape:connector-curvature="0"
             class="st8"
             d="m 562.3,115.8 c -5.3,0 -10.1,-3 -12.4,-7.7 -0.5,-1 -0.1,-2.2 0.9,-2.7 1,-0.5 2.2,-0.1 2.7,0.9 0,0 0,0 0,0 2.4,4.8 8.2,6.8 13.1,4.4 1.9,-1 3.5,-2.5 4.4,-4.4 0.5,-1 1.7,-1.4 2.7,-0.9 1,0.5 1.4,1.7 0.9,2.7 -2.3,4.7 -7.1,7.7 -12.3,7.7 z"
             id="path278" />
          <path
             style="fill:#382a12"
             inkscape:connector-curvature="0"
             class="st8"
             d="m 558.9,100.5 c -3.3,0 -6.4,-1.2 -8.9,-3.3 -0.8,-0.7 -0.9,-2 -0.2,-2.8 0.7,-0.8 2,-0.9 2.8,-0.2 4.1,3.5 10.2,3 13.7,-1.1 1.4,-1.6 2.2,-3.7 2.3,-5.8 0.1,-1.1 1,-2 2.1,-1.9 1.1,0.1 2,1 1.9,2.1 -0.2,5.3 -3.5,9.9 -8.3,12 -1.7,0.6 -3.5,1 -5.4,1 z"
             id="path280" />
          <path
             style="fill:#382a12"
             inkscape:connector-curvature="0"
             class="st8"
             d="m 609.6,100.5 c -1.9,0 -3.8,-0.4 -5.5,-1.1 -4.8,-2.1 -8.1,-6.7 -8.3,-12 -0.1,-1.1 0.8,-2.1 1.9,-2.1 1.1,0 2.1,0.8 2.1,1.9 0.3,5.4 4.8,9.5 10.2,9.2 2.2,-0.1 4.2,-0.9 5.8,-2.3 0.8,-0.7 2.1,-0.6 2.8,0.2 0.7,0.8 0.6,2.1 -0.2,2.8 -2.4,2.2 -5.5,3.4 -8.8,3.4 z"
             id="path282" />
          <path
             style="fill:#382a12"
             inkscape:connector-curvature="0"
             class="st8"
             d="m 606.6,115.8 c -5.3,0 -10.1,-3 -12.4,-7.7 -0.5,-1 -0.1,-2.2 0.9,-2.7 1,-0.5 2.2,-0.1 2.7,0.9 0,0 0,0 0,0 2.4,4.8 8.2,6.8 13.1,4.4 1.9,-1 3.5,-2.5 4.4,-4.4 0.5,-1 1.7,-1.4 2.7,-0.9 1,0.5 1.4,1.7 0.9,2.7 0,0 0,0 0,0 -2.2,4.7 -7,7.7 -12.3,7.7 z"
             id="path284" />
          <path
             style="fill:#382a12"
             inkscape:connector-curvature="0"
             class="st8"
             d="m 596.1,126.1 c -0.4,0 -0.7,-0.1 -1,-0.3 -6.6,-3.7 -14.6,-3.8 -21.2,-0.2 -1,0.5 -2.2,0.2 -2.7,-0.8 -0.5,-1 -0.2,-2.2 0.8,-2.7 v 0 c 7.9,-4.3 17.5,-4.2 25.3,0.3 1,0.6 1.3,1.8 0.7,2.8 -0.5,0.5 -1.2,0.9 -1.9,0.9 z"
             id="path286" />
        </g>
      </g>
      <g
         id="Emoji_x5F_3">
        <circle
           style="fill:#f9bf44"
           class="st9"
           cx="806.40002"
           cy="147.2"
           r="67.199997"
           id="circle290" />
        <g
           id="Layer_1_1_">
          <path
             style="fill:#66337b"
             inkscape:connector-curvature="0"
             class="st10"
             d="m 870.6,127.4 c -1.3,1.1 -2.7,2.2 -4.1,3.2 -14.3,10.1 -35.9,16.6 -60.1,16.6 -24.2,0 -45.8,-6.5 -60.1,-16.6 -1.5,-1 -2.8,-2.1 -4.1,-3.2 10.9,-35.5 48.5,-55.3 84,-44.4 21.2,6.5 37.9,23.2 44.4,44.4 z"
             id="path292" />
          <ellipse
             style="fill:#382a12"
             class="st8"
             cx="779.5"
             cy="147.2"
             rx="6"
             ry="6.9000001"
             id="ellipse294" />
          <ellipse
             style="fill:#382a12"
             class="st8"
             cx="832.79999"
             cy="147.2"
             rx="6"
             ry="6.9000001"
             id="ellipse296" />
          <path
             style="fill:#382a12"
             inkscape:connector-curvature="0"
             class="st8"
             d="m 840,174.9 c -4.6,0 -6.9,-3.3 -8.7,-5.9 -1.7,-2.4 -2.7,-3.8 -4.7,-3.8 -2,0 -3,1.4 -4.7,3.8 -1.8,2.6 -4.1,5.9 -8.7,5.9 -4.6,0 -6.9,-3.3 -8.7,-5.9 -1.7,-2.4 -2.7,-3.8 -4.7,-3.8 -2,0 -3.1,1.4 -4.7,3.8 -1.8,2.6 -4.1,5.9 -8.7,5.9 -4.6,0 -6.9,-3.3 -8.7,-5.9 -1.7,-2.4 -2.7,-3.8 -4.7,-3.8 -1.3,0 -2.4,-1.1 -2.4,-2.4 0,-1.3 1.1,-2.4 2.4,-2.4 4.6,0 6.9,3.3 8.7,5.9 1.7,2.4 2.7,3.8 4.7,3.8 2,0 3.1,-1.4 4.7,-3.8 1.8,-2.6 4.1,-5.9 8.7,-5.9 4.6,0 6.9,3.3 8.7,5.9 1.7,2.4 2.7,3.8 4.7,3.8 2,0 3,-1.4 4.7,-3.8 1.8,-2.6 4.1,-5.9 8.7,-5.9 4.6,0 6.9,3.3 8.7,5.9 1.7,2.4 2.7,3.8 4.7,3.8 1.3,0 2.4,1.1 2.4,2.4 0,1.3 -1,2.4 -2.4,2.4 z"
             id="path298" />
          <path
             style="fill:#382a12"
             inkscape:connector-curvature="0"
             class="st8"
             d="m 777.1,133.4 c -3.9,0 -7.7,-1.4 -10.7,-4 -1,-0.9 -1.1,-2.4 -0.3,-3.4 0.9,-1 2.4,-1.1 3.4,-0.3 4.9,4.2 12.3,3.6 16.5,-1.3 1.7,-2 2.7,-4.4 2.8,-7 0.1,-1.3 1.2,-2.4 2.5,-2.3 1.3,0.1 2.4,1.2 2.3,2.5 -0.3,6.3 -4.2,11.9 -10,14.4 -2,1 -4.3,1.4 -6.5,1.4 z"
             id="path300" />
          <path
             style="fill:#382a12"
             inkscape:connector-curvature="0"
             class="st8"
             d="m 837.9,133.4 c -8.8,0 -16.1,-6.9 -16.5,-15.7 -0.1,-1.3 1,-2.5 2.3,-2.5 1.3,-0.1 2.5,1 2.5,2.3 0.3,6.5 5.8,11.4 12.3,11.1 2.6,-0.1 5,-1.1 7,-2.8 1,-0.9 2.5,-0.7 3.4,0.3 0.9,1 0.7,2.5 -0.3,3.4 -3,2.5 -6.8,3.9 -10.7,3.9 z"
             id="path302" />
        </g>
      </g>
      <g
         id="Emoji_x5F_4">
        <circle
           style="fill:#f6262f"
           class="st11"
           cx="605.79999"
           cy="466.29999"
           r="42.799999"
           id="circle306" />
        <g
           id="Layer_1_2_">
          <path
             style="fill:#a8111c"
             inkscape:connector-curvature="0"
             class="st12"
             d="M 600.7,462.9 576.9,455 c -0.4,-0.1 -0.8,-0.1 -1.2,0.1 -0.4,0.2 -0.6,0.5 -0.8,0.9 -2.4,7.4 1.5,15.3 8.9,17.8 1.4,0.5 2.9,0.7 4.4,0.7 6.1,0 11.4,-3.9 13.4,-9.6 0.3,-0.9 -0.1,-1.8 -0.9,-2 z"
             id="path308" />
          <path
             style="fill:#a8111c"
             inkscape:connector-curvature="0"
             class="st12"
             d="m 636.2,455.9 c -0.3,-0.8 -1.1,-1.2 -1.9,-1 0,0 0,0 0,0 l -23.7,8 c -0.4,0.1 -0.7,0.4 -0.9,0.8 -0.2,0.4 -0.2,0.8 -0.1,1.2 1.9,5.7 7.3,9.6 13.3,9.6 7.8,0 14.1,-6.3 14,-14.1 0,-1.6 -0.2,-3.1 -0.7,-4.5 z"
             id="path310" />
          <path
             style="fill:#2d090e"
             inkscape:connector-curvature="0"
             class="st13"
             d="m 621.9,484.2 c -0.6,0 -1.1,-0.3 -1.4,-0.9 -4,-8.2 -13.9,-11.5 -22,-7.5 -3.3,1.6 -5.9,4.2 -7.5,7.5 -0.4,0.8 -1.3,1.1 -2.1,0.7 -0.8,-0.4 -1.1,-1.3 -0.7,-2.1 4.8,-9.7 16.5,-13.7 26.1,-8.9 3.9,1.9 7,5 8.9,8.9 0.4,0.8 0.1,1.7 -0.7,2.1 -0.1,0.1 -0.3,0.2 -0.6,0.2 z"
             id="path312" />
        </g>
      </g>
      <g
         id="Emoji_x5F_5">
        <circle
           style="fill:#f9bf44"
           class="st9"
           cx="839.79999"
           cy="455.29999"
           r="53.5"
           id="circle316" />
        <g
           id="Layer_1_3_">
          <path
             style="fill:#382a12"
             inkscape:connector-curvature="0"
             class="st8"
             d="m 853.1,468.1 c -0.2,0 -0.4,0 -0.6,-0.1 -7.5,-2.5 -15.5,-2.6 -23,-0.3 -1,0.3 -2.1,-0.2 -2.4,-1.2 -0.3,-1 0.2,-2.1 1.2,-2.4 0,0 0,0 0.1,0 8.3,-2.5 17.1,-2.4 25.4,0.3 1,0.3 1.6,1.4 1.2,2.4 -0.3,0.8 -1,1.3 -1.9,1.3 z"
             id="path318" />
          <path
             style="fill:#382a12"
             inkscape:connector-curvature="0"
             class="st8"
             d="m 850.8,445.8 c -0.3,0 -0.6,-0.1 -0.8,-0.2 -0.9,-0.5 -1.3,-1.6 -0.8,-2.6 0,0 0,0 0,0 2.3,-4.5 6.9,-7.3 11.9,-7.2 1.3,0 2.5,0.2 3.7,0.6 3.4,1 6.2,3.4 7.8,6.5 0.5,0.9 0.2,2.1 -0.8,2.6 -0.9,0.5 -2.1,0.2 -2.6,-0.8 0,0 0,-0.1 0,-0.1 -1.1,-2.2 -3.1,-3.9 -5.5,-4.6 -0.9,-0.3 -1.7,-0.4 -2.6,-0.4 -3.6,-0.1 -6.8,1.9 -8.4,5.1 -0.5,0.7 -1.1,1.1 -1.9,1.1 z"
             id="path320" />
          <path
             style="fill:#382a12"
             inkscape:connector-curvature="0"
             class="st8"
             d="m 808.6,436.7 c -0.3,0 -0.6,-0.1 -0.8,-0.2 -0.9,-0.5 -1.3,-1.6 -0.8,-2.6 0,0 0,0 0,0 3.3,-6.5 11.3,-9 17.7,-5.7 2.4,1.2 4.4,3.2 5.7,5.6 0.5,0.9 0.1,2.1 -0.8,2.6 -0.9,0.5 -2.1,0.1 -2.6,-0.8 -1.6,-3 -4.7,-4.9 -8.1,-5 -3.5,-0.1 -6.8,1.9 -8.4,5.1 -0.5,0.6 -1.2,1 -1.9,1 z"
             id="path322" />
          <ellipse
             style="fill:#382a12"
             transform="matrix(0.01357079,-0.9999,0.9999,0.01357079,358.3499,1264.5404)"
             class="st8"
             cx="820.09998"
             cy="450.60001"
             rx="5.5"
             ry="4.8000002"
             id="ellipse324" />
          <ellipse
             style="fill:#382a12"
             transform="matrix(0.01357079,-0.9999,0.9999,0.01357079,399.5721,1307.476)"
             class="st8"
             cx="862.5"
             cy="451.20001"
             rx="5.5"
             ry="4.8000002"
             id="ellipse326" />
        </g>
      </g>
      <g
         id="g330" />
      <g
         id="g332" />
      <g
         id="g334" />
      <g
         id="g336" />
      <g
         id="g338" />
      <g
         id="g340" />
      <g
         id="g342" />
      <g
         id="g344" />
      <g
         id="g346" />
      <g
         id="g348" />
      <g
         id="g350" />
      <g
         id="g352" />
      <g
         id="g354" />
      <g
         id="g356" />
      <g
         id="g358" />
    </g>
    <text
       id="text439"
       y="477.85901"
       x="140.37958"
       style="font-style:normal;font-variant:normal;font-weight:bold;font-stretch:normal;font-size:106.10663605px;line-height:1.25;font-family:Ubuntu;-inkscape-font-specification:'Ubuntu Bold';letter-spacing:23.21969986px;word-spacing:0px;fill:#ffffff;fill-opacity:1;stroke:none;stroke-width:0.88422197"
       xml:space="preserve"><tspan
         style="font-style:normal;font-variant:normal;font-weight:bold;font-stretch:normal;font-size:106.10663605px;font-family:Ubuntu;-inkscape-font-specification:'Ubuntu Bold';letter-spacing:23.21969986px;fill:#ffffff;stroke-width:0.88422197"
         y="477.85901"
         x="140.37958"
         id="tspan437"
         sodipodi:role="line">EMOTIONALLY</tspan></text>
    <text
       id="text4790"
       y="517.6012"
       x="301.67114"
       style="font-style:normal;font-variant:normal;font-weight:normal;font-stretch:normal;font-size:35.36887741px;line-height:1.25;font-family:'Trajan Pro';-inkscape-font-specification:'Trajan Pro';letter-spacing:0px;word-spacing:0px;fill:#000000;fill-opacity:1;stroke:none;stroke-width:0.88422197"
       xml:space="preserve"><tspan
         style="font-style:normal;font-variant:normal;font-weight:normal;font-stretch:normal;font-family:'Liberation Sans';-inkscape-font-specification:'Liberation Sans';letter-spacing:1.32633293px;fill:#ffffff;stroke-width:0.88422197"
         y="517.6012"
         x="301.67114"
         id="tspan4788"
         sodipodi:role="line">EMOTIONAL ANALYSIS MADE SIMPLE</tspan></text>
  </g>
</svg>
